<?xml version="1.0" encoding="utf-8"?>
<!-- Generator: Adobe Illustrator 24.3.0, SVG Export Plug-In . SVG Version: 6.00 Build 0)  -->
<svg version="1.1" id="Layer_1" xmlns="http://www.w3.org/2000/svg" xmlns:xlink="http://www.w3.org/1999/xlink" x="0px" y="0px"
	 viewBox="0 0 182 305" style="enable-background:new 0 0 182 305;" xml:space="preserve">
<style type="text/css">
	.st0{fill-rule:evenodd;clip-rule:evenodd;fill:#242424;}
	.st1{fill-rule:evenodd;clip-rule:evenodd;fill:#C95E20;}
	.st2{clip-path:url(#SVGID_2_);}
	.st3{clip-path:url(#SVGID_4_);}
	.st4{fill-rule:evenodd;clip-rule:evenodd;fill:#733612;}
	.st5{fill:#FFFFFF;}
</style>
<g>
	<path class="st0" d="M141.1,296.1l25.1-203.6c0.1-0.6,0-1.2-0.2-1.7c-0.2-0.5-0.6-1-1.2-1.5c-0.6-0.5-1.2-0.8-1.8-1
		c-0.6-0.2-1.4-0.3-2.2-0.3H21.4c-0.9,0-1.6,0.1-2.2,0.3c-0.6,0.2-1.3,0.6-1.8,1c-0.6,0.5-1,1-1.2,1.5c-0.2,0.5-0.3,1.1-0.2,1.7
		L41,296.1c0.3,2.5,1.8,4.7,4.1,6.3c2.3,1.6,5.3,2.5,8.7,2.5h74.4c3.3,0,6.4-0.9,8.7-2.5C139.2,300.8,140.7,298.6,141.1,296.1z"/>
	<path class="st1" d="M7.5,53.6h166.9c4.1,0,7.5,3.4,7.5,7.5v15c0,4.1-3.4,7.5-7.5,7.5H7.5c-4.1,0-7.5-3.4-7.5-7.5v-15
		C0,57,3.4,53.6,7.5,53.6z"/>
	<path class="st1" d="M148.4,9.8h-7.8L136.8,0H128l-4,9.8H33.6c-5.6,0-10.1,4.5-10.1,10v20.1c0,5.5,4.5,10,10.1,10h114.9
		c5.6,0,10.1-4.5,10.1-10V19.8C158.5,14.3,154,9.8,148.4,9.8z"/>
	<g>
		<defs>
			
				<rect id="SVGID_1_" x="59.8" y="174.1" transform="matrix(0.9911 -0.1333 0.1333 0.9911 -25.5113 12.0091)" width="34.2" height="44.8"/>
		</defs>
		<clipPath id="SVGID_2_">
			<use xlink:href="#SVGID_1_"  style="overflow:visible;"/>
		</clipPath>
		<g class="st2">
			<path class="st1" d="M69.3,218.2c1.1,0.6,2.3,0.9,3.5,1c-0.8-0.9-1.6-2-2.4-3.2c-1.6-2.9-2.2-5.2-2.3-8.3
				c0-5.9,1.9-10.3,4.5-15.1c2.5-4.3,5.2-8.1,8.1-12c0.9-1.4,1.9-2.7,2.9-4.1c0.2-0.4,0.4-0.8,0.6-1.2c0.1-0.3,0.1-0.2,0.2,0.1
				c0.2,0.1,0-0.4-0.4-1c-7.9-3.4-17.5,3.2-21.6,14.9C58.1,201.5,61.2,214.3,69.3,218.2z M73.4,219.3c-0.9-1.1-1.6-2.2-2.3-3.6
				c-1.3-2.8-1.6-4.9-1.4-7.8c0.7-5.4,3-9.2,5.9-13.4c3-3.7,5.8-7.6,9.3-10.8c1.2-1.4,2.4-2.8,3.5-4.2c0.1-0.1,0.4-0.6,0.7-1.1
				c4.5,5.7,5.7,15.7,2.4,25.1C88,213.6,80.5,219.8,73.4,219.3z"/>
		</g>
	</g>
	<g>
		<defs>
			<polygon id="SVGID_3_" points="114.7,178.3 96.8,185.7 107.2,210.8 125,203.4 			"/>
		</defs>
		<clipPath id="SVGID_4_">
			<use xlink:href="#SVGID_3_"  style="overflow:visible;"/>
		</clipPath>
		<g class="st3">
			<path class="st4" d="M121.1,203.8c-0.4,0.6-0.9,1.1-1.4,1.6c0.1-0.7,0.2-1.5,0.2-2.4c-0.1-2-0.5-3.4-1.4-5
				c-1.8-3.1-4-4.9-6.7-6.6c-2.5-1.6-4.9-2.8-7.5-4c-0.8-0.5-1.8-0.9-2.6-1.3c-0.2-0.1-0.4-0.3-0.7-0.4c-0.1-0.1-0.1-0.1-0.1,0.1
				c-0.1,0.1-0.1-0.2-0.1-0.7c2.9-4.1,9.5-3.4,15,1.6C121.5,191.7,123.9,199.4,121.1,203.8z M119.4,205.5c0.1-0.8,0.1-1.6,0-2.6
				c-0.2-1.8-0.7-3.1-1.6-4.5c-1.9-2.6-4.2-4-6.9-5.3c-2.6-1.1-5.1-2.3-7.7-3c-1-0.4-2-0.8-3-1.2c-0.1-0.1-0.4-0.2-0.6-0.4
				c-0.5,4.3,1.9,9.9,6.3,13.9C110.6,206.7,116.1,207.8,119.4,205.5z"/>
		</g>
	</g>
	<g>
		<path class="st5" d="M60.3,140.7c0.5-0.9,1.2-1.7,2.1-2.2c0.9-0.5,2-0.8,3.1-0.8c1.5,0,2.8,0.4,3.8,1.1c1,0.8,1.7,1.8,2,3.2H68
			c-0.2-0.5-0.5-0.9-0.9-1.2s-0.9-0.5-1.6-0.5c-0.9,0-1.6,0.3-2.1,1c-0.5,0.6-0.8,1.5-0.8,2.7c0,1.2,0.3,2.1,0.8,2.7
			c0.5,0.6,1.2,1,2.1,1c1.2,0,2.1-0.6,2.4-1.7h3.3c-0.3,1.3-1,2.4-2,3.1c-1,0.8-2.2,1.2-3.7,1.2c-1.2,0-2.2-0.3-3.1-0.8
			c-0.9-0.5-1.6-1.3-2.1-2.2c-0.5-0.9-0.8-2-0.8-3.3C59.5,142.7,59.8,141.6,60.3,140.7z"/>
		<path class="st5" d="M73.5,140.7c0.5-1,1.2-1.7,2-2.2c0.8-0.5,1.8-0.8,2.8-0.8c0.9,0,1.7,0.2,2.4,0.6c0.7,0.4,1.2,0.8,1.6,1.4
			v-1.7h3.1v12.2h-3.1v-1.8c-0.4,0.6-0.9,1-1.6,1.4c-0.7,0.4-1.5,0.6-2.4,0.6c-1,0-2-0.3-2.8-0.8c-0.8-0.5-1.5-1.3-2-2.2
			c-0.5-1-0.7-2.1-0.7-3.3C72.8,142.7,73,141.6,73.5,140.7z M81.9,142.1c-0.3-0.5-0.7-0.9-1.2-1.2s-1-0.4-1.6-0.4s-1.1,0.1-1.6,0.4
			c-0.5,0.3-0.9,0.7-1.2,1.2c-0.3,0.5-0.5,1.2-0.5,1.9c0,0.7,0.2,1.4,0.5,1.9c0.3,0.5,0.7,1,1.2,1.3c0.5,0.3,1,0.4,1.6,0.4
			c0.6,0,1.1-0.1,1.6-0.4s0.9-0.7,1.2-1.2c0.3-0.5,0.4-1.2,0.4-1.9C82.4,143.3,82.2,142.6,81.9,142.1z"/>
		<path class="st5" d="M92.1,140.4v5.9c0,0.4,0.1,0.7,0.3,0.9c0.2,0.2,0.5,0.3,1,0.3h1.4v2.6h-1.9c-2.6,0-3.9-1.3-3.9-3.8v-5.9h-1.5
			v-2.5H89v-3h3.1v3h2.7v2.5H92.1z"/>
		<path class="st5" d="M97,140.7c0.5-0.9,1.2-1.7,2.1-2.2c0.9-0.5,2-0.8,3.1-0.8c1.5,0,2.8,0.4,3.8,1.1c1,0.8,1.7,1.8,2,3.2h-3.3
			c-0.2-0.5-0.5-0.9-0.9-1.2s-0.9-0.5-1.6-0.5c-0.9,0-1.6,0.3-2.1,1c-0.5,0.6-0.8,1.5-0.8,2.7c0,1.2,0.3,2.1,0.8,2.7
			c0.5,0.6,1.2,1,2.1,1c1.2,0,2.1-0.6,2.4-1.7h3.3c-0.3,1.3-1,2.4-2,3.1s-2.2,1.2-3.7,1.2c-1.2,0-2.2-0.3-3.1-0.8
			c-0.9-0.5-1.6-1.3-2.1-2.2c-0.5-0.9-0.8-2-0.8-3.3C96.2,142.7,96.5,141.6,97,140.7z"/>
		<path class="st5" d="M119.6,138.3c0.7,0.4,1.3,1,1.7,1.8c0.4,0.8,0.6,1.7,0.6,2.8v7.1h-3.1v-6.7c0-1-0.2-1.7-0.7-2.2
			c-0.5-0.5-1.1-0.8-2-0.8c-0.9,0-1.5,0.3-2,0.8c-0.5,0.5-0.7,1.3-0.7,2.2v6.7h-3.1v-16.3h3.1v5.6c0.4-0.5,0.9-0.9,1.6-1.2
			c0.7-0.3,1.4-0.5,2.2-0.5C118,137.7,118.9,137.9,119.6,138.3z"/>
	</g>
	<g>
		<path class="st5" d="M57.7,241.4c0.5-0.9,1.2-1.7,2.1-2.2c0.9-0.5,2-0.8,3.1-0.8c1.5,0,2.8,0.4,3.8,1.1c1,0.8,1.7,1.8,2,3.2h-3.3
			c-0.2-0.5-0.5-0.9-0.9-1.2c-0.4-0.3-0.9-0.5-1.6-0.5c-0.9,0-1.6,0.3-2.1,1c-0.5,0.6-0.8,1.5-0.8,2.7c0,1.2,0.3,2.1,0.8,2.7
			c0.5,0.6,1.2,1,2.1,1c1.2,0,2.1-0.6,2.4-1.7h3.3c-0.3,1.3-1,2.4-2,3.1c-1,0.8-2.2,1.2-3.7,1.2c-1.2,0-2.2-0.3-3.1-0.8
			c-0.9-0.5-1.6-1.3-2.1-2.2c-0.5-0.9-0.8-2-0.8-3.3S57.2,242.4,57.7,241.4z"/>
		<path class="st5" d="M73.2,250.3c-0.9-0.5-1.7-1.3-2.2-2.2c-0.5-1-0.8-2.1-0.8-3.3c0-1.2,0.3-2.3,0.8-3.3c0.5-1,1.3-1.7,2.3-2.2
			c1-0.5,2-0.8,3.2-0.8c1.2,0,2.2,0.3,3.2,0.8c1,0.5,1.7,1.3,2.3,2.2c0.6,1,0.8,2.1,0.8,3.3c0,1.2-0.3,2.3-0.8,3.3
			c-0.6,1-1.3,1.7-2.3,2.2s-2,0.8-3.2,0.8C75.2,251,74.2,250.8,73.2,250.3z M78,248c0.5-0.3,0.9-0.7,1.2-1.2c0.3-0.5,0.4-1.2,0.4-2
			c0-1.2-0.3-2-0.9-2.7c-0.6-0.6-1.4-0.9-2.2-0.9s-1.6,0.3-2.2,0.9c-0.6,0.6-0.9,1.5-0.9,2.7s0.3,2,0.9,2.7c0.6,0.6,1.3,0.9,2.2,0.9
			C77,248.4,77.5,248.2,78,248z"/>
		<path class="st5" d="M90.6,241.2h-2.1v9.7h-3.1v-9.7H84v-2.5h1.4V238c0-1.5,0.4-2.6,1.3-3.3c0.9-0.7,2.1-1,3.9-1v2.6
			c-0.7,0-1.3,0.1-1.6,0.4c-0.3,0.3-0.4,0.7-0.4,1.4v0.5h2.1V241.2z"/>
		<path class="st5" d="M98.2,241.2h-2.1v9.7H93v-9.7h-1.4v-2.5H93V238c0-1.5,0.4-2.6,1.3-3.3c0.9-0.7,2.1-1,3.9-1v2.6
			c-0.7,0-1.3,0.1-1.6,0.4s-0.4,0.7-0.4,1.4v0.5h2.1V241.2z"/>
		<path class="st5" d="M111.5,245.7h-8.9c0.1,0.9,0.4,1.6,0.9,2.1c0.5,0.5,1.2,0.7,2,0.7c1.1,0,2-0.5,2.4-1.5h3.3
			c-0.4,1.2-1,2.1-2,2.9c-1,0.8-2.2,1.1-3.7,1.1c-1.2,0-2.2-0.3-3.2-0.8c-0.9-0.5-1.7-1.3-2.2-2.2s-0.8-2.1-0.8-3.3
			c0-1.3,0.3-2.4,0.8-3.3s1.2-1.7,2.2-2.2c0.9-0.5,2-0.8,3.2-0.8c1.2,0,2.2,0.2,3.1,0.7c0.9,0.5,1.6,1.2,2.1,2.1
			c0.5,0.9,0.8,2,0.8,3.2C111.5,244.9,111.5,245.3,111.5,245.7z M108.4,243.6c0-0.8-0.3-1.4-0.9-1.9c-0.6-0.5-1.2-0.7-2-0.7
			c-0.8,0-1.4,0.2-1.9,0.7s-0.8,1.1-1,1.9H108.4z"/>
		<path class="st5" d="M125,245.7h-8.9c0.1,0.9,0.4,1.6,0.9,2.1c0.5,0.5,1.2,0.7,2,0.7c1.1,0,2-0.5,2.4-1.5h3.3
			c-0.4,1.2-1,2.1-2,2.9c-1,0.8-2.2,1.1-3.7,1.1c-1.2,0-2.2-0.3-3.2-0.8s-1.7-1.3-2.2-2.2s-0.8-2.1-0.8-3.3c0-1.3,0.3-2.4,0.8-3.3
			c0.5-1,1.2-1.7,2.2-2.2c0.9-0.5,2-0.8,3.2-0.8c1.2,0,2.2,0.2,3.1,0.7c0.9,0.5,1.6,1.2,2.1,2.1c0.5,0.9,0.8,2,0.8,3.2
			C125.1,244.9,125.1,245.3,125,245.7z M121.9,243.6c0-0.8-0.3-1.4-0.9-1.9s-1.2-0.7-2-0.7c-0.8,0-1.4,0.2-1.9,0.7
			c-0.5,0.5-0.8,1.1-1,1.9H121.9z"/>
	</g>
</g>
</svg>
