<?xml version="1.0" encoding="utf-8"?>
<!-- Generator: Adobe Illustrator 24.3.0, SVG Export Plug-In . SVG Version: 6.00 Build 0)  -->
<svg version="1.1" id="Layer_1" xmlns="http://www.w3.org/2000/svg" xmlns:xlink="http://www.w3.org/1999/xlink" x="0px" y="0px"
	 viewBox="0 0 61.1 49.4" style="enable-background:new 0 0 61.1 49.4;" xml:space="preserve">
<style type="text/css">
	.st0{clip-path:url(#SVGID_2_);fill:#FFFFFF;}
	.st1{fill-rule:evenodd;clip-rule:evenodd;fill:#FFFFFF;}
</style>
<g>
	<g>
		<defs>
			<path id="SVGID_1_" d="M14.3,40.7c0.8,0.4,1.7,0.6,2.6,0.8c-0.6-0.7-1.2-1.5-1.7-2.4c-1.2-2.1-1.6-3.8-1.7-6.1
				c0-4.3,1.4-7.5,3.3-11.1c1.8-3.2,3.8-5.9,6-8.8c0.6-1,1.4-2,2.1-3c0.2-0.3,0.3-0.6,0.5-0.9c0.1-0.2,0.1-0.2,0.1,0.1
				c0.1,0,0-0.3-0.3-0.8c-5.8-2.5-12.9,2.4-15.9,11C6.1,28.4,8.4,37.8,14.3,40.7z M17.3,41.5c-0.6-0.8-1.2-1.6-1.7-2.6
				c-0.9-2-1.2-3.6-1-5.7c0.5-3.9,2.2-6.8,4.3-9.8c2.2-2.7,4.3-5.5,6.8-7.9c0.9-1,1.8-2,2.6-3.1c0.1-0.1,0.3-0.5,0.5-0.8
				c3.3,4.2,4.2,11.5,1.8,18.4C28,37.2,22.5,41.8,17.3,41.5z"/>
		</defs>
		<use xlink:href="#SVGID_1_"  style="overflow:visible;fill-rule:evenodd;clip-rule:evenodd;fill:#FFFFFF;"/>
		<clipPath id="SVGID_2_">
			<use xlink:href="#SVGID_1_"  style="overflow:visible;"/>
		</clipPath>
		
			<rect id="SVGID_5_" x="7.4" y="8.3" transform="matrix(0.9911 -0.1333 0.1333 0.9911 -3.1173 2.8755)" class="st0" width="25.1" height="32.8"/>
	</g>
	<g>
		<path class="st1" d="M52.4,30c-0.3,0.5-0.6,0.8-1,1.1c0.1-0.5,0.1-1.1,0.1-1.7c-0.1-1.5-0.4-2.5-1-3.7c-1.3-2.3-3-3.6-4.9-4.8
			c-1.8-1.1-3.6-2-5.5-2.9c-0.6-0.3-1.3-0.6-1.9-1c-0.2-0.1-0.3-0.2-0.5-0.3c-0.1-0.1-0.1-0.1,0,0.1c0,0.1-0.1-0.2-0.1-0.5
			c2.1-3,7-2.5,11,1.2C52.7,21.2,54.5,26.8,52.4,30z"/>
		<path class="st1" d="M51.2,31.3c0.1-0.6,0.1-1.2,0-1.9c-0.2-1.3-0.5-2.2-1.2-3.3c-1.4-1.9-3.1-2.9-5-3.9c-1.9-0.8-3.7-1.7-5.7-2.2
			c-0.7-0.3-1.5-0.6-2.2-0.9c-0.1,0-0.3-0.2-0.5-0.3c-0.4,3.2,1.4,7.2,4.6,10.2C44.7,32.2,48.8,33,51.2,31.3z"/>
	</g>
</g>
</svg>
