<?xml version="1.0" encoding="utf-8"?>
<!-- Generator: Adobe Illustrator 24.3.0, SVG Export Plug-In . SVG Version: 6.00 Build 0)  -->
<svg version="1.1" id="Layer_1" xmlns="http://www.w3.org/2000/svg" xmlns:xlink="http://www.w3.org/1999/xlink" x="0px" y="0px"
	 viewBox="0 0 240 36" style="enable-background:new 0 0 240 36;" xml:space="preserve">
<style type="text/css">
	.st0{clip-path:url(#SVGID_2_);}
	.st1{fill-rule:evenodd;clip-rule:evenodd;fill:#C95E20;}
	.st2{clip-path:url(#SVGID_4_);}
	.st3{fill-rule:evenodd;clip-rule:evenodd;fill:#733612;}
</style>
<g>
	<g>
		<g>
			<defs>
				
					<rect id="SVGID_1_" x="1.9" y="1.5" transform="matrix(0.9911 -0.1333 0.1333 0.9911 -2.2566 2.0907)" width="25.1" height="32.8"/>
			</defs>
			<clipPath id="SVGID_2_">
				<use xlink:href="#SVGID_1_"  style="overflow:visible;"/>
			</clipPath>
			<g class="st0">
				<path class="st1" d="M8.8,33.9c0.8,0.4,1.7,0.6,2.6,0.8c-0.6-0.7-1.2-1.5-1.7-2.4c-1.2-2.1-1.6-3.8-1.7-6.1
					c0-4.3,1.4-7.5,3.3-11.1c1.8-3.2,3.8-5.9,6-8.8c0.6-1,1.4-2,2.1-3c0.2-0.3,0.3-0.6,0.5-0.9C20,2.2,20,2.2,20,2.5
					c0.1,0,0-0.3-0.3-0.8c-5.9-2.3-12.9,2.5-16,11.1C0.6,21.6,2.9,31,8.8,33.9z M11.9,34.7c-0.6-0.8-1.2-1.6-1.7-2.6
					c-0.9-2-1.2-3.6-1-5.7c0.5-3.9,2.2-6.8,4.3-9.8c2.2-2.7,4.3-5.5,6.8-7.9c0.9-1,1.8-2,2.6-3.1c0.1-0.1,0.3-0.5,0.5-0.8
					c3.3,4.2,4.2,11.5,1.8,18.4C22.5,30.4,17,35,11.9,34.7z"/>
			</g>
		</g>
	</g>
	<g>
		<g>
			<defs>
				
					<rect id="SVGID_3_" x="32.4" y="6.6" transform="matrix(0.9242 -0.3818 0.3818 0.9242 -3.3359 16.3199)" width="14.2" height="19.9"/>
			</defs>
			<clipPath id="SVGID_4_">
				<use xlink:href="#SVGID_3_"  style="overflow:visible;"/>
			</clipPath>
			<g class="st2">
				<path class="st3" d="M46.9,23.3c-0.3,0.5-0.6,0.8-1,1.1c0.1-0.5,0.1-1.1,0.1-1.7c-0.1-1.5-0.4-2.5-1-3.7c-1.3-2.3-3-3.6-4.9-4.8
					c-1.8-1.1-3.6-2-5.5-2.9c-0.6-0.3-1.3-0.6-1.9-1c-0.2-0.1-0.3-0.2-0.5-0.3c-0.1-0.1-0.1-0.1,0,0.1c0,0.1-0.1-0.2-0.1-0.5
					c2.1-3,7-2.5,11,1.2C47.3,14.5,49,20.1,46.9,23.3z M45.7,24.6c0.1-0.6,0.1-1.2,0-1.9c-0.2-1.3-0.5-2.2-1.2-3.3
					c-1.4-1.9-3.1-2.9-5-3.9c-1.9-0.8-3.7-1.7-5.7-2.2c-0.7-0.3-1.5-0.6-2.2-0.9c-0.1,0-0.3-0.2-0.5-0.3c-0.4,3.2,1.4,7.2,4.6,10.2
					C39.2,25.4,43.3,26.2,45.7,24.6z"/>
			</g>
		</g>
	</g>
	<g>
		<path d="M53.4,16.7c0.7-1.3,1.7-2.3,2.9-3c1.2-0.7,2.6-1.1,4.2-1.1c2,0,3.7,0.5,5.1,1.5c1.3,1,2.2,2.5,2.7,4.3h-4.5
			c-0.2-0.7-0.6-1.3-1.2-1.7c-0.6-0.4-1.3-0.6-2.1-0.6c-1.2,0-2.1,0.4-2.8,1.3c-0.7,0.9-1,2.1-1,3.7c0,1.6,0.3,2.8,1,3.7
			c0.7,0.9,1.6,1.3,2.8,1.3c1.7,0,2.8-0.8,3.3-2.3h4.5c-0.5,1.8-1.4,3.2-2.7,4.3c-1.4,1.1-3,1.6-5.1,1.6c-1.6,0-3-0.4-4.2-1.1
			c-1.2-0.7-2.2-1.7-2.9-3c-0.7-1.3-1-2.8-1-4.5C52.4,19.5,52.7,18,53.4,16.7z"/>
		<path d="M71.4,16.7c0.7-1.3,1.6-2.3,2.7-3c1.1-0.7,2.4-1,3.8-1c1.2,0,2.3,0.2,3.2,0.7c0.9,0.5,1.7,1.1,2.2,1.9v-2.4h4.2v16.5h-4.2
			V27c-0.5,0.8-1.3,1.4-2.2,1.9c-0.9,0.5-2,0.8-3.3,0.8c-1.4,0-2.7-0.4-3.8-1.1c-1.1-0.7-2-1.7-2.7-3c-0.7-1.3-1-2.8-1-4.5
			C70.4,19.5,70.7,18,71.4,16.7z M82.8,18.6c-0.4-0.7-0.9-1.3-1.6-1.7c-0.7-0.4-1.4-0.6-2.2-0.6c-0.8,0-1.5,0.2-2.1,0.6
			c-0.7,0.4-1.2,0.9-1.6,1.7c-0.4,0.7-0.6,1.6-0.6,2.6c0,1,0.2,1.9,0.6,2.6c0.4,0.7,0.9,1.3,1.6,1.7c0.7,0.4,1.4,0.6,2.1,0.6
			c0.8,0,1.5-0.2,2.2-0.6c0.7-0.4,1.2-0.9,1.6-1.7c0.4-0.7,0.6-1.6,0.6-2.6C83.4,20.2,83.2,19.3,82.8,18.6z"/>
		<path d="M96.6,16.4v8c0,0.6,0.1,1,0.4,1.2c0.3,0.2,0.7,0.4,1.4,0.4h1.9v3.5h-2.6c-3.5,0-5.3-1.7-5.3-5.1v-8h-2v-3.4h2V8.8h4.2v4.1
			h3.7v3.4H96.6z"/>
		<path d="M103.2,16.7c0.7-1.3,1.7-2.3,2.9-3c1.2-0.7,2.6-1.1,4.2-1.1c2,0,3.7,0.5,5.1,1.5c1.3,1,2.2,2.5,2.7,4.3h-4.5
			c-0.2-0.7-0.6-1.3-1.2-1.7c-0.6-0.4-1.3-0.6-2.1-0.6c-1.2,0-2.1,0.4-2.8,1.3c-0.7,0.9-1,2.1-1,3.7c0,1.6,0.3,2.8,1,3.7
			c0.7,0.9,1.6,1.3,2.8,1.3c1.7,0,2.8-0.8,3.3-2.3h4.5c-0.5,1.8-1.4,3.2-2.7,4.3c-1.4,1.1-3,1.6-5.1,1.6c-1.6,0-3-0.4-4.2-1.1
			c-1.2-0.7-2.2-1.7-2.9-3c-0.7-1.3-1-2.8-1-4.5C102.2,19.5,102.5,18,103.2,16.7z"/>
		<path d="M133.9,13.5c1,0.5,1.7,1.4,2.3,2.4c0.5,1.1,0.8,2.3,0.8,3.8v9.7h-4.2v-9.1c0-1.3-0.3-2.3-1-3c-0.7-0.7-1.6-1.1-2.7-1.1
			c-1.2,0-2.1,0.4-2.7,1.1c-0.7,0.7-1,1.7-1,3v9.1h-4.2V7.4h4.2V15c0.5-0.7,1.3-1.3,2.1-1.7c0.9-0.4,1.9-0.6,3-0.6
			C131.8,12.7,132.9,13,133.9,13.5z"/>
		<path d="M141,29c-0.5-0.5-0.7-1-0.7-1.7c0-0.7,0.2-1.3,0.7-1.7c0.5-0.5,1.1-0.7,1.9-0.7c0.7,0,1.3,0.2,1.8,0.7
			c0.5,0.5,0.7,1.1,0.7,1.7c0,0.7-0.2,1.3-0.7,1.7c-0.5,0.5-1.1,0.7-1.8,0.7C142.1,29.7,141.4,29.4,141,29z"/>
		<path d="M148.7,16.7c0.7-1.3,1.7-2.3,2.9-3c1.2-0.7,2.6-1.1,4.2-1.1c2,0,3.7,0.5,5.1,1.5c1.3,1,2.2,2.5,2.7,4.3h-4.5
			c-0.2-0.7-0.6-1.3-1.2-1.7c-0.6-0.4-1.3-0.6-2.1-0.6c-1.2,0-2.1,0.4-2.8,1.3c-0.7,0.9-1,2.1-1,3.7c0,1.6,0.3,2.8,1,3.7
			c0.7,0.9,1.6,1.3,2.8,1.3c1.7,0,2.8-0.8,3.3-2.3h4.5c-0.5,1.8-1.4,3.2-2.7,4.3c-1.4,1.1-3,1.6-5.1,1.6c-1.6,0-3-0.4-4.2-1.1
			c-1.2-0.7-2.2-1.7-2.9-3c-0.7-1.3-1-2.8-1-4.5C147.7,19.5,148,18,148.7,16.7z"/>
		<path d="M169.7,28.7c-1.3-0.7-2.3-1.7-3-3c-0.7-1.3-1.1-2.8-1.1-4.5c0-1.7,0.4-3.2,1.1-4.5c0.7-1.3,1.8-2.3,3.1-3
			c1.3-0.7,2.7-1.1,4.3-1.1s3,0.4,4.3,1.1c1.3,0.7,2.3,1.7,3.1,3c0.7,1.3,1.1,2.8,1.1,4.5c0,1.7-0.4,3.2-1.1,4.5
			c-0.8,1.3-1.8,2.3-3.1,3c-1.3,0.7-2.8,1.1-4.4,1.1C172.5,29.7,171,29.4,169.7,28.7z M176.2,25.5c0.7-0.4,1.2-0.9,1.6-1.7
			c0.4-0.7,0.6-1.6,0.6-2.7c0-1.6-0.4-2.8-1.2-3.6c-0.8-0.8-1.8-1.3-3-1.3c-1.2,0-2.2,0.4-3,1.3c-0.8,0.8-1.2,2.1-1.2,3.6
			c0,1.6,0.4,2.8,1.2,3.6c0.8,0.8,1.8,1.3,3,1.3C174.8,26.1,175.5,25.9,176.2,25.5z"/>
		<path d="M193.3,16.4h-2.9v13.1h-4.2V16.4h-1.9v-3.4h1.9v-0.8c0-2,0.6-3.5,1.7-4.5s2.9-1.4,5.2-1.3v3.5c-1,0-1.7,0.1-2.1,0.5
			c-0.4,0.4-0.6,1-0.6,1.9v0.7h2.9V16.4z"/>
		<path d="M203.6,16.4h-2.9v13.1h-4.2V16.4h-1.9v-3.4h1.9v-0.8c0-2,0.6-3.5,1.7-4.5c1.2-1,2.9-1.4,5.2-1.3v3.5c-1,0-1.7,0.1-2.1,0.5
			c-0.4,0.4-0.6,1-0.6,1.9v0.7h2.9V16.4z"/>
		<path d="M221.6,22.5h-12.1c0.1,1.2,0.5,2.1,1.3,2.8c0.7,0.7,1.6,1,2.7,1c1.6,0,2.7-0.7,3.3-2h4.5c-0.5,1.6-1.4,2.9-2.7,3.9
			c-1.4,1-3,1.5-5,1.5c-1.6,0-3-0.4-4.3-1.1c-1.3-0.7-2.2-1.7-3-3s-1.1-2.8-1.1-4.5c0-1.7,0.3-3.2,1-4.5c0.7-1.3,1.7-2.3,2.9-3
			c1.3-0.7,2.7-1,4.3-1c1.6,0,3,0.3,4.2,1c1.2,0.7,2.2,1.6,2.9,2.9c0.7,1.2,1,2.7,1,4.3C221.7,21.4,221.7,22,221.6,22.5z
			 M217.4,19.6c0-1.1-0.4-1.9-1.2-2.6c-0.8-0.6-1.7-1-2.8-1c-1,0-1.9,0.3-2.6,0.9c-0.7,0.6-1.1,1.5-1.3,2.6H217.4z"/>
		<path d="M240,22.5h-12.1c0.1,1.2,0.5,2.1,1.3,2.8c0.7,0.7,1.6,1,2.7,1c1.6,0,2.7-0.7,3.3-2h4.5c-0.5,1.6-1.4,2.9-2.7,3.9
			c-1.4,1-3,1.5-5,1.5c-1.6,0-3-0.4-4.3-1.1c-1.3-0.7-2.2-1.7-3-3s-1.1-2.8-1.1-4.5c0-1.7,0.3-3.2,1-4.5c0.7-1.3,1.7-2.3,2.9-3
			c1.3-0.7,2.7-1,4.3-1c1.6,0,3,0.3,4.2,1c1.2,0.7,2.2,1.6,2.9,2.9c0.7,1.2,1,2.7,1,4.3C240.1,21.4,240.1,22,240,22.5z M235.8,19.6
			c0-1.1-0.4-1.9-1.2-2.6c-0.8-0.6-1.7-1-2.8-1c-1,0-1.9,0.3-2.6,0.9c-0.7,0.6-1.1,1.5-1.3,2.6H235.8z"/>
	</g>
</g>
</svg>
